<svg width="96" height="96" viewBox="0 0 96 96" fill="none" xmlns="http://www.w3.org/2000/svg">
<circle cx="48" cy="48" r="46" stroke="#DADAFF" stroke-width="4"/>
<path fill-rule="evenodd" clip-rule="evenodd" d="M52.7369 24.4674L48 16L43.2631 24.4674C44.7944 24.1608 46.3784 24 48 24C49.6216 24 51.2056 24.1608 52.7369 24.4674ZM55.6661 25.2504C58.7219 26.2798 61.5025 27.9075 63.8685 29.9943L64 20.2872L55.6661 25.2504ZM66.0057 32.1315C68.0925 34.4975 69.7202 37.2781 70.7496 40.3339L75.7128 32L66.0057 32.1315ZM71.5326 43.2631C71.8392 44.7944 72 46.3784 72 48C72 49.6216 71.8392 51.2056 71.5326 52.7369L80 48L71.5326 43.2631ZM70.7496 55.6661C69.7202 58.7219 68.0925 61.5025 66.0057 63.8685L75.7128 64L70.7496 55.6661ZM63.8685 66.0057C61.5025 68.0925 58.7219 69.7202 55.6661 70.7496L64 75.7128L63.8685 66.0057ZM52.7369 71.5326C51.2056 71.8392 49.6216 72 48 72C46.3784 72 44.7944 71.8392 43.2631 71.5326L48 80L52.7369 71.5326ZM40.3339 70.7496C37.2781 69.7202 34.4975 68.0925 32.1315 66.0057L32 75.7128L40.3339 70.7496ZM29.9943 63.8685C27.9075 61.5025 26.2798 58.7219 25.2504 55.6661L20.2872 64L29.9943 63.8685ZM24.4674 52.7369C24.1608 51.2056 24 49.6216 24 48C24 46.3784 24.1608 44.7944 24.4674 43.2631L16 48L24.4674 52.7369ZM25.2504 40.3339C26.2798 37.2781 27.9075 34.4975 29.9943 32.1315L20.2872 32L25.2504 40.3339ZM32.1315 29.9943C34.4975 27.9075 37.2781 26.2798 40.3339 25.2504L32 20.2872L32.1315 29.9943Z" fill="#DADAFF"/>
<circle cx="48" cy="48" r="20" fill="#DADAFF"/>
</svg>
