<svg width="96" height="96" viewBox="0 0 96 96" fill="none" xmlns="http://www.w3.org/2000/svg">
<circle cx="48" cy="48" r="46" stroke="#DADAFF" stroke-width="4"/>
<path fill-rule="evenodd" clip-rule="evenodd" d="M41 42.7846V50C41 53.866 44.134 57 48 57C48.3926 57 48.7777 56.9677 49.1527 56.9055L41 42.7846ZM50.2049 58.7279C49.4993 58.9056 48.7607 59 48 59C43.0294 59 39 54.9706 39 50V41H35V50C35 56.1472 39.2666 61.2978 45 62.6521V69H41C39.8954 69 39 69.8954 39 71V72C39 73.1046 39.8954 74 41 74H55C56.1046 74 57 73.1046 57 72V71C57 70.729 56.9461 70.4706 56.8484 70.2349L56.5884 69.7845C56.2229 69.3076 55.6474 69 55 69H51V62.6521C51.4283 62.551 51.8485 62.4286 52.2593 62.2862L50.2049 58.7279ZM58.6821 57.411L56.3483 53.3687C56.7686 52.3282 57 51.1911 57 50V41H61V50C61 52.7543 60.1434 55.3086 58.6821 57.411ZM54.9391 50.9278L41.4412 27.5488C42.4346 24.8917 44.9964 23 48 23C51.866 23 55 26.134 55 30V50C55 50.3145 54.9793 50.6242 54.9391 50.9278Z" fill="#DADAFF"/>
<rect x="31.7321" y="22.7321" width="4" height="60" rx="2" transform="rotate(-30 31.7321 22.7321)" fill="#DADAFF"/>
</svg>
