<svg width="96" height="96" viewBox="0 0 96 96" fill="none" xmlns="http://www.w3.org/2000/svg">
<circle cx="48" cy="48" r="46" stroke="#DADAFF" stroke-width="4"/>
<path fill-rule="evenodd" clip-rule="evenodd" d="M45.6067 29.1493C37.8559 30.1233 31.5581 35.7664 29.6184 43.1731C33.2686 38.3283 38.7898 34.9726 45.1082 34.18L45.6067 29.1493Z" fill="#DADAFF"/>
<path d="M47.4074 28.241C47.4675 27.5068 48.5422 27.506 48.6033 28.2401L49.9458 44.3502C49.975 44.7 49.6989 45 49.3479 45H46.687C46.3363 45 46.0604 44.7006 46.089 44.3511L47.4074 28.241Z" fill="#DADAFF"/>
<circle cx="48" cy="48" r="4" fill="#DADAFF"/>
<path fill-rule="evenodd" clip-rule="evenodd" d="M71.4823 52.0165C70.4916 51.7527 69.849 50.7882 69.9301 49.7662C69.9764 49.1835 70 48.5945 70 48C70 35.8497 60.1503 26 48 26C35.8497 26 26 35.8497 26 48C26 50.5505 26.434 52.9996 27.2322 55.2776C27.5714 56.2457 27.1989 57.3416 26.308 57.85V57.85C25.293 58.4291 23.9814 58.0417 23.5794 56.9444C22.5577 54.1556 22 51.1429 22 48C22 33.6406 33.6406 22 48 22C62.3594 22 74 33.6406 74 48C74 48.8239 73.9617 49.6388 73.8867 50.4431C73.7783 51.6068 72.6116 52.3173 71.4823 52.0165V52.0165Z" fill="#DADAFF"/>
</svg>
