<svg width="96" height="96" viewBox="0 0 96 96" fill="none" xmlns="http://www.w3.org/2000/svg">
<circle cx="48" cy="48" r="46" stroke="#DADAFF" stroke-width="4"/>
<path d="M22 48L22 42C22 39.2386 24.2386 37 27 37H32.0292C33.2956 37 34.5149 36.5194 35.4408 35.6553L45.6354 26.1403C46.9138 24.9471 49 25.8537 49 27.6024V68.3976C49 70.1463 46.9138 71.0529 45.6354 69.8597L35.4408 60.3447C34.5149 59.4806 33.2956 59 32.0292 59H27C24.2386 59 22 56.7614 22 54V48Z" fill="#DADAFF"/>
<path fill-rule="evenodd" clip-rule="evenodd" d="M52.0442 43.1462C51.2482 43.9121 51.2741 45.178 51.6698 46.2094C51.8831 46.7653 52 47.369 52 48C52 48.631 51.8831 49.2347 51.6698 49.7906C51.2741 50.822 51.2482 52.0879 52.0442 52.8538V52.8538C52.8401 53.6196 54.1295 53.6031 54.7021 52.6586C55.5258 51.2996 56 49.7052 56 48C56 46.2948 55.5258 44.7004 54.7021 43.3414C54.1295 42.3969 52.8401 42.3804 52.0442 43.1462V43.1462Z" fill="#DADAFF"/>
<path fill-rule="evenodd" clip-rule="evenodd" d="M57.8089 37.5992C57.0129 38.3651 57.0035 39.6242 57.6392 40.5276C59.1267 42.6415 60.0001 45.2188 60.0001 48C60.0001 50.7812 59.1267 53.3585 57.6392 55.4724C57.0035 56.3758 57.0129 57.6349 57.8089 58.4008V58.4008C58.6047 59.1666 59.8816 59.1486 60.5493 58.2688C62.7149 55.4159 64.0001 51.858 64.0001 48C64.0001 44.142 62.7149 40.5841 60.5493 37.7312C59.8816 36.8514 58.6047 36.8334 57.8089 37.5992V37.5992Z" fill="#DADAFF"/>
<path fill-rule="evenodd" clip-rule="evenodd" d="M63.5735 32.0522C62.7775 32.8181 62.7617 34.079 63.449 34.9438C66.298 38.5283 68 43.0654 68 48C68 52.9346 66.298 57.4717 63.449 61.0562C62.7617 61.921 62.7775 63.1819 63.5735 63.9478V63.9478C64.3693 64.7136 65.6422 64.6941 66.3425 63.84C69.8781 59.5276 72 54.0116 72 48C72 41.9884 69.8781 36.4724 66.3425 32.16C65.6422 31.3059 64.3693 31.2864 63.5735 32.0522V32.0522Z" fill="#DADAFF"/>
</svg>
