<svg width="96" height="96" viewBox="0 0 96 96" fill="none" xmlns="http://www.w3.org/2000/svg">
<circle cx="48" cy="48" r="46" stroke="#DADAFF" stroke-width="4"/>
<path d="M22 48L22 42C22 39.2386 24.2386 37 27 37H32.0292C33.2956 37 34.5149 36.5194 35.4408 35.6553L45.6354 26.1403C46.9138 24.9471 49 25.8537 49 27.6024V68.3976C49 70.1463 46.9138 71.0529 45.6354 69.8597L35.4408 60.3447C34.5149 59.4806 33.2956 59 32.0292 59H27C24.2386 59 22 56.7614 22 54V48Z" fill="#DADAFF"/>
<path fill-rule="evenodd" clip-rule="evenodd" d="M60.5359 50L54.2679 60.8564C53.7156 61.813 54.0434 63.0362 55 63.5885C55.9566 64.1407 57.1797 63.813 57.732 62.8564L62.8453 54L60.5359 50ZM67.4641 46L73.732 35.1436C74.2843 34.187 73.9566 32.9638 73 32.4115C72.0434 31.8593 70.8202 32.187 70.2679 33.1436L65.1547 42L67.4641 46Z" fill="#DADAFF"/>
<rect x="53.2679" y="33.4115" width="4" height="36" rx="2" transform="rotate(-30 53.2679 33.4115)" fill="#DADAFF"/>
</svg>
