<svg width="96" height="96" viewBox="0 0 96 96" fill="none" xmlns="http://www.w3.org/2000/svg">
<circle cx="48" cy="48" r="46" stroke="#DADAFF" stroke-width="4"/>
<path d="M22 48L22 42C22 39.2386 24.2386 37 27 37H32.0292C33.2956 37 34.5149 36.5194 35.4408 35.6553L45.6354 26.1403C46.9138 24.9471 49 25.8537 49 27.6024V68.3976C49 70.1463 46.9138 71.0529 45.6354 69.8597L35.4408 60.3447C34.5149 59.4806 33.2956 59 32.0292 59H27C24.2386 59 22 56.7614 22 54V48Z" fill="#DADAFF"/>
<path fill-rule="evenodd" clip-rule="evenodd" d="M52.0442 43.1462C51.2482 43.9121 51.2741 45.178 51.6698 46.2094C51.8831 46.7653 52 47.369 52 48C52 48.631 51.8831 49.2347 51.6698 49.7906C51.2741 50.822 51.2482 52.0879 52.0442 52.8538V52.8538C52.8401 53.6196 54.1295 53.6031 54.7021 52.6586C55.5258 51.2996 56 49.7052 56 48C56 46.2948 55.5258 44.7004 54.7021 43.3414C54.1295 42.3969 52.8401 42.3804 52.0442 43.1462V43.1462Z" fill="#DADAFF"/>
</svg>
